<?xml version="1.0" encoding="UTF-8" standalone="no"?><svg xmlns="http://www.w3.org/2000/svg" xmlns:xlink="http://www.w3.org/1999/xlink" contentStyleType="text/css" height="1415px" preserveAspectRatio="none" style="width:978px;height:1415px;background:#FFFFFF;" version="1.1" viewBox="0 0 978 1415" width="978px" zoomAndPan="magnify"><defs/><g><rect fill="#F1F1F1" height="35.0938" rx="12.5" ry="12.5" style="stroke:#181818;stroke-width:0.5;" width="115" x="193.5" y="172.9238"/><text fill="#000000" font-family="sans-serif" font-size="12" lengthAdjust="spacing" textLength="95" x="203.5" y="195.3809">Determine scope</text><polygon fill="none" points="30,218.0176,115,218.0176,122,241.627,472,241.627,472,593.4707,30,593.4707,30,218.0176" style="stroke:#000000;stroke-width:1.5;"/><line style="stroke:#000000;stroke-width:1.5;" x1="30" x2="122" y1="241.627" y2="241.627"/><text fill="#000000" font-family="sans-serif" font-size="14" lengthAdjust="spacing" textLength="79" x="34" y="234.5508">Gather-Data</text><rect fill="#555555" height="6" rx="2.5" ry="2.5" style="stroke:#555555;stroke-width:1.0;" width="422" x="40" y="255.627"/><rect fill="#F1F1F1" height="95.4688" rx="12.5" ry="12.5" style="stroke:#181818;stroke-width:0.5;" width="145" x="75.5" y="281.627"/><text fill="#000000" font-family="sans-serif" font-size="12" lengthAdjust="spacing" textLength="120" x="85.5" y="304.084">Gather Interoperability</text><text fill="#000000" font-family="sans-serif" font-size="12" lengthAdjust="spacing" textLength="83" x="85.5" y="319.1777">Maturity reports</text><text fill="#000000" font-family="sans-serif" font-size="12" lengthAdjust="spacing" textLength="122" x="85.5" y="334.2715">and raw interview data</text><text fill="#000000" font-family="sans-serif" font-size="12" lengthAdjust="spacing" textLength="69" x="85.5" y="349.3652">from publicly</text><text fill="#000000" font-family="sans-serif" font-size="12" lengthAdjust="spacing" textLength="97" x="85.5" y="364.459">available sources</text><rect fill="#F1F1F1" height="35.0938" rx="12.5" ry="12.5" style="stroke:#181818;stroke-width:0.5;" width="188" x="54" y="412.0957"/><text fill="#000000" font-family="sans-serif" font-size="12" lengthAdjust="spacing" textLength="168" x="64" y="434.5527">Request confidential metadata</text><rect fill="#F1F1F1" height="80.375" rx="12.5" ry="12.5" style="stroke:#181818;stroke-width:0.5;" width="178" x="270" y="339.3145"/><text fill="#000000" font-family="sans-serif" font-size="12" lengthAdjust="spacing" textLength="75" x="280" y="361.7715">Request prior</text><text fill="#000000" font-family="sans-serif" font-size="12" lengthAdjust="spacing" textLength="146" x="280" y="376.8652">confidential interoperability</text><text fill="#000000" font-family="sans-serif" font-size="12" lengthAdjust="spacing" textLength="158" x="280" y="391.959">maturity assessment reports</text><text fill="#000000" font-family="sans-serif" font-size="12" lengthAdjust="spacing" textLength="122" x="280" y="407.0527">and raw interview data</text><rect fill="#555555" height="6" rx="2.5" ry="2.5" style="stroke:#555555;stroke-width:1.0;" width="422" x="40" y="567.4707"/><polygon fill="none" points="101,603.4707,198,603.4707,205,627.0801,419,627.0801,419,1222.8301,101,1222.8301,101,603.4707" style="stroke:#000000;stroke-width:1.5;"/><line style="stroke:#000000;stroke-width:1.5;" x1="101" x2="205" y1="627.0801" y2="627.0801"/><text fill="#000000" font-family="sans-serif" font-size="14" lengthAdjust="spacing" textLength="91" x="105" y="620.0039">Combine-Data</text><rect fill="#F1F1F1" height="80.375" rx="12.5" ry="12.5" style="stroke:#181818;stroke-width:0.5;" width="136" x="183" y="641.0801"/><text fill="#000000" font-family="sans-serif" font-size="12" lengthAdjust="spacing" textLength="69" x="193" y="663.5371">Filter reports</text><text fill="#000000" font-family="sans-serif" font-size="12" lengthAdjust="spacing" textLength="104" x="193" y="678.6309">on matching SGAM</text><text fill="#000000" font-family="sans-serif" font-size="12" lengthAdjust="spacing" textLength="113" x="193" y="693.7246">Domains and Zones</text><text fill="#000000" font-family="sans-serif" font-size="12" lengthAdjust="spacing" textLength="81" x="193" y="708.8184">of the usecase</text><rect fill="#F1F1F1" height="65.2813" rx="12.5" ry="12.5" style="stroke:#181818;stroke-width:0.5;" width="116" x="193" y="756.4551"/><text fill="#000000" font-family="sans-serif" font-size="12" lengthAdjust="spacing" textLength="93" x="203" y="778.9121">Make corrections</text><text fill="#000000" font-family="sans-serif" font-size="12" lengthAdjust="spacing" textLength="65" x="203" y="794.0059">for changes</text><text fill="#000000" font-family="sans-serif" font-size="12" lengthAdjust="spacing" textLength="84" x="203" y="809.0996">in methodology</text><rect fill="#F1F1F1" height="65.2813" rx="12.5" ry="12.5" style="stroke:#181818;stroke-width:0.5;" width="116" x="193" y="856.7363"/><text fill="#000000" font-family="sans-serif" font-size="12" lengthAdjust="spacing" textLength="93" x="203" y="879.1934">Make corrections</text><text fill="#000000" font-family="sans-serif" font-size="12" lengthAdjust="spacing" textLength="65" x="203" y="894.2871">for changes</text><text fill="#000000" font-family="sans-serif" font-size="12" lengthAdjust="spacing" textLength="82" x="203" y="909.3809">in questionaire</text><polygon fill="#F1F1F1" points="199.5,957.0176,302.5,957.0176,314.5,984.6895,302.5,1012.3613,199.5,1012.3613,187.5,984.6895,199.5,957.0176" style="stroke:#181818;stroke-width:0.5;"/><text fill="#000000" font-family="sans-serif" font-size="11" lengthAdjust="spacing" textLength="72" x="199.5" y="968.4365">Ensure that for</text><text fill="#000000" font-family="sans-serif" font-size="11" lengthAdjust="spacing" textLength="73" x="199.5" y="982.2725">each time step,</text><text fill="#000000" font-family="sans-serif" font-size="11" lengthAdjust="spacing" textLength="83" x="199.5" y="996.1084">enough Comunity</text><text fill="#000000" font-family="sans-serif" font-size="11" lengthAdjust="spacing" textLength="103" x="199.5" y="1009.9443">Members participated</text><text fill="#000000" font-family="sans-serif" font-size="11" lengthAdjust="spacing" textLength="18" x="169.5" y="982.2725">yes</text><text fill="#000000" font-family="sans-serif" font-size="11" lengthAdjust="spacing" textLength="12" x="314.5" y="982.2725">no</text><rect fill="#F1F1F1" height="50.1875" rx="12.5" ry="12.5" style="stroke:#181818;stroke-width:0.5;" width="111" x="121" y="1022.3613"/><text fill="#000000" font-family="sans-serif" font-size="12" lengthAdjust="spacing" textLength="80" x="131" y="1044.8184">Use time point</text><text fill="#000000" font-family="sans-serif" font-size="12" lengthAdjust="spacing" textLength="91" x="131" y="1059.9121">in tracking report</text><rect fill="#F1F1F1" height="35.0938" rx="12.5" ry="12.5" style="stroke:#181818;stroke-width:0.5;" width="147" x="252" y="1022.3613"/><text fill="#000000" font-family="sans-serif" font-size="12" lengthAdjust="spacing" textLength="127" x="262" y="1044.8184">Discard time point data</text><polygon fill="#F1F1F1" points="251,1078.5488,263,1090.5488,251,1102.5488,239,1090.5488,251,1078.5488" style="stroke:#181818;stroke-width:0.5;"/><rect fill="#F1F1F1" height="65.2813" rx="12.5" ry="12.5" style="stroke:#181818;stroke-width:0.5;" width="135" x="183.5" y="1137.5488"/><text fill="#000000" font-family="sans-serif" font-size="12" lengthAdjust="spacing" textLength="61" x="193.5" y="1160.0059">Clarify data</text><text fill="#000000" font-family="sans-serif" font-size="12" lengthAdjust="spacing" textLength="112" x="193.5" y="1175.0996">inconsistencies with</text><text fill="#000000" font-family="sans-serif" font-size="12" lengthAdjust="spacing" textLength="109" x="193.5" y="1190.1934">original Researcher</text><rect fill="#F1F1F1" height="50.1875" rx="12.5" ry="12.5" style="stroke:#181818;stroke-width:0.5;" width="151" x="175.5" y="1242.8301"/><text fill="#000000" font-family="sans-serif" font-size="12" lengthAdjust="spacing" textLength="120" x="185.5" y="1265.2871">Create Interoperability</text><text fill="#000000" font-family="sans-serif" font-size="12" lengthAdjust="spacing" textLength="131" x="185.5" y="1280.3809">Maturity Tracking Report</text><line style="stroke:#000000;stroke-width:1.5;" x1="15" x2="15" y1="12.4551" y2="1403.2051"/><ellipse cx="723" cy="72.7363" fill="#222222" rx="10" ry="10" style="stroke:#222222;stroke-width:1.0;"/><rect fill="#F1F1F1" height="50.1875" rx="12.5" ry="12.5" style="stroke:#181818;stroke-width:0.5;" width="153" x="646.5" y="102.7363"/><text fill="#000000" font-family="sans-serif" font-size="12" lengthAdjust="spacing" textLength="130" x="656.5" y="125.1934">Request Interoperability</text><text fill="#000000" font-family="sans-serif" font-size="12" lengthAdjust="spacing" textLength="131" x="656.5" y="140.2871">Maturity Tracking Report</text><polygon fill="none" points="502,218.0176,587,218.0176,594,241.627,944,241.627,944,593.4707,502,593.4707,502,218.0176" style="stroke:#000000;stroke-width:1.5;"/><line style="stroke:#000000;stroke-width:1.5;" x1="502" x2="594" y1="241.627" y2="241.627"/><text fill="#000000" font-family="sans-serif" font-size="14" lengthAdjust="spacing" textLength="79" x="506" y="234.5508">Gather-Data</text><rect fill="#F1F1F1" height="65.2813" rx="12.5" ry="12.5" style="stroke:#181818;stroke-width:0.5;" width="154" x="543" y="482.1895"/><text fill="#000000" font-family="sans-serif" font-size="12" lengthAdjust="spacing" textLength="107" x="553" y="504.6465">Provide confidential</text><text fill="#000000" font-family="sans-serif" font-size="12" lengthAdjust="spacing" textLength="104" x="553" y="519.7402">metadata for which</text><text fill="#000000" font-family="sans-serif" font-size="12" lengthAdjust="spacing" textLength="134" x="553" y="534.834">permission was granted</text><rect fill="#F1F1F1" height="35.0938" rx="12.5" ry="12.5" style="stroke:#181818;stroke-width:0.5;" width="155" x="753.5" y="454.6895"/><text fill="#000000" font-family="sans-serif" font-size="12" lengthAdjust="spacing" textLength="135" x="763.5" y="477.1465">Provide available reports</text><rect fill="#F1F1F1" height="50.1875" rx="12.5" ry="12.5" style="stroke:#181818;stroke-width:0.5;" width="151" x="647.5" y="1313.0176"/><text fill="#000000" font-family="sans-serif" font-size="12" lengthAdjust="spacing" textLength="127" x="657.5" y="1335.4746">Receive Interoperability</text><text fill="#000000" font-family="sans-serif" font-size="12" lengthAdjust="spacing" textLength="131" x="657.5" y="1350.5684">Maturity Tracking Report</text><ellipse cx="723" cy="1393.2051" fill="none" rx="10" ry="10" style="stroke:#222222;stroke-width:1.5;"/><line style="stroke:#222222;stroke-width:2.5;" x1="716.8128" x2="729.1872" y1="1387.0179" y2="1399.3923"/><line style="stroke:#222222;stroke-width:2.5;" x1="729.1872" x2="716.8128" y1="1387.0179" y2="1399.3923"/><line style="stroke:#000000;stroke-width:1.5;" x1="487" x2="487" y1="12.4551" y2="1403.2051"/><line style="stroke:#000000;stroke-width:1.5;" x1="959" x2="959" y1="12.4551" y2="1403.2051"/><line style="stroke:#181818;stroke-width:1.0;" x1="148" x2="148" y1="377.0957" y2="412.0957"/><polygon fill="#181818" points="144,402.0957,148,412.0957,152,402.0957,148,406.0957" style="stroke:#181818;stroke-width:1.0;"/><line style="stroke:#181818;stroke-width:1.0;" x1="148" x2="148" y1="261.627" y2="281.627"/><polygon fill="#181818" points="144,271.627,148,281.627,152,271.627,148,275.627" style="stroke:#181818;stroke-width:1.0;"/><line style="stroke:#181818;stroke-width:1.0;" x1="359" x2="359" y1="261.627" y2="339.3145"/><polygon fill="#181818" points="355,329.3145,359,339.3145,363,329.3145,359,333.3145" style="stroke:#181818;stroke-width:1.0;"/><line style="stroke:#181818;stroke-width:1.0;" x1="251" x2="251" y1="208.0176" y2="255.627"/><polygon fill="#181818" points="247,245.627,251,255.627,255,245.627,251,249.627" style="stroke:#181818;stroke-width:1.0;"/><line style="stroke:#181818;stroke-width:1.0;" x1="251" x2="251" y1="721.4551" y2="756.4551"/><polygon fill="#181818" points="247,746.4551,251,756.4551,255,746.4551,251,750.4551" style="stroke:#181818;stroke-width:1.0;"/><line style="stroke:#181818;stroke-width:1.0;" x1="251" x2="251" y1="821.7363" y2="856.7363"/><polygon fill="#181818" points="247,846.7363,251,856.7363,255,846.7363,251,850.7363" style="stroke:#181818;stroke-width:1.0;"/><line style="stroke:#181818;stroke-width:1.0;" x1="187.5" x2="176.5" y1="984.6895" y2="984.6895"/><line style="stroke:#181818;stroke-width:1.0;" x1="176.5" x2="176.5" y1="984.6895" y2="1022.3613"/><polygon fill="#181818" points="172.5,1012.3613,176.5,1022.3613,180.5,1012.3613,176.5,1016.3613" style="stroke:#181818;stroke-width:1.0;"/><line style="stroke:#181818;stroke-width:1.0;" x1="314.5" x2="325.5" y1="984.6895" y2="984.6895"/><line style="stroke:#181818;stroke-width:1.0;" x1="325.5" x2="325.5" y1="984.6895" y2="1022.3613"/><polygon fill="#181818" points="321.5,1012.3613,325.5,1022.3613,329.5,1012.3613,325.5,1016.3613" style="stroke:#181818;stroke-width:1.0;"/><line style="stroke:#181818;stroke-width:1.0;" x1="176.5" x2="176.5" y1="1072.5488" y2="1090.5488"/><line style="stroke:#181818;stroke-width:1.0;" x1="176.5" x2="239" y1="1090.5488" y2="1090.5488"/><polygon fill="#181818" points="229,1086.5488,239,1090.5488,229,1094.5488,233,1090.5488" style="stroke:#181818;stroke-width:1.0;"/><line style="stroke:#181818;stroke-width:1.0;" x1="325.5" x2="325.5" y1="1057.4551" y2="1090.5488"/><line style="stroke:#181818;stroke-width:1.0;" x1="325.5" x2="263" y1="1090.5488" y2="1090.5488"/><polygon fill="#181818" points="273,1086.5488,263,1090.5488,273,1094.5488,269,1090.5488" style="stroke:#181818;stroke-width:1.0;"/><line style="stroke:#181818;stroke-width:1.0;" x1="251" x2="251" y1="922.0176" y2="957.0176"/><polygon fill="#181818" points="247,947.0176,251,957.0176,255,947.0176,251,951.0176" style="stroke:#181818;stroke-width:1.0;"/><line style="stroke:#181818;stroke-width:1.0;" x1="251" x2="251" y1="1102.5488" y2="1137.5488"/><polygon fill="#181818" points="247,1127.5488,251,1137.5488,255,1127.5488,251,1131.5488" style="stroke:#181818;stroke-width:1.0;"/><line style="stroke:#181818;stroke-width:1.0;" x1="251" x2="251" y1="573.4707" y2="641.0801"/><polygon fill="#181818" points="247,631.0801,251,641.0801,255,631.0801,251,635.0801" style="stroke:#181818;stroke-width:1.0;"/><line style="stroke:#181818;stroke-width:1.0;" x1="251" x2="251" y1="1202.8301" y2="1242.8301"/><polygon fill="#181818" points="247,1232.8301,251,1242.8301,255,1232.8301,251,1236.8301" style="stroke:#181818;stroke-width:1.0;"/><line style="stroke:#181818;stroke-width:1.0;" x1="723" x2="723" y1="82.7363" y2="102.7363"/><polygon fill="#181818" points="719,92.7363,723,102.7363,727,92.7363,723,96.7363" style="stroke:#181818;stroke-width:1.0;"/><line style="stroke:#181818;stroke-width:1.0;" x1="723" x2="723" y1="1363.2051" y2="1383.2051"/><polygon fill="#181818" points="719,1373.2051,723,1383.2051,727,1373.2051,723,1377.2051" style="stroke:#181818;stroke-width:1.0;"/><line style="stroke:#181818;stroke-width:1.0;" x1="723" x2="723" y1="152.9238" y2="157.9238"/><line style="stroke:#181818;stroke-width:1.0;" x1="723" x2="251" y1="157.9238" y2="157.9238"/><line style="stroke:#181818;stroke-width:1.0;" x1="251" x2="251" y1="157.9238" y2="172.9238"/><polygon fill="#181818" points="247,162.9238,251,172.9238,255,162.9238,251,166.9238" style="stroke:#181818;stroke-width:1.0;"/><line style="stroke:#181818;stroke-width:1.0;" x1="148" x2="148" y1="447.1895" y2="464.6895"/><line style="stroke:#181818;stroke-width:1.0;" x1="148" x2="620" y1="464.6895" y2="464.6895"/><line style="stroke:#181818;stroke-width:1.0;" x1="620" x2="620" y1="464.6895" y2="482.1895"/><polygon fill="#181818" points="616,472.1895,620,482.1895,624,472.1895,620,476.1895" style="stroke:#181818;stroke-width:1.0;"/><line style="stroke:#181818;stroke-width:1.0;" x1="359" x2="359" y1="419.6895" y2="437.1895"/><line style="stroke:#181818;stroke-width:1.0;" x1="359" x2="831" y1="437.1895" y2="437.1895"/><line style="stroke:#181818;stroke-width:1.0;" x1="831" x2="831" y1="437.1895" y2="454.6895"/><polygon fill="#181818" points="827,444.6895,831,454.6895,835,444.6895,831,448.6895" style="stroke:#181818;stroke-width:1.0;"/><line style="stroke:#181818;stroke-width:1.0;" x1="620" x2="620" y1="547.4707" y2="553.4707"/><line style="stroke:#181818;stroke-width:1.0;" x1="620" x2="148" y1="553.4707" y2="553.4707"/><line style="stroke:#181818;stroke-width:1.0;" x1="148" x2="148" y1="553.4707" y2="567.4707"/><polygon fill="#181818" points="144,557.4707,148,567.4707,152,557.4707,148,561.4707" style="stroke:#181818;stroke-width:1.0;"/><line style="stroke:#181818;stroke-width:1.0;" x1="831" x2="831" y1="489.7832" y2="553.4707"/><line style="stroke:#181818;stroke-width:1.0;" x1="831" x2="359" y1="553.4707" y2="553.4707"/><line style="stroke:#181818;stroke-width:1.0;" x1="359" x2="359" y1="553.4707" y2="567.4707"/><polygon fill="#181818" points="355,557.4707,359,567.4707,363,557.4707,359,561.4707" style="stroke:#181818;stroke-width:1.0;"/><line style="stroke:#181818;stroke-width:1.0;" x1="251" x2="251" y1="1293.0176" y2="1298.0176"/><line style="stroke:#181818;stroke-width:1.0;" x1="251" x2="723" y1="1298.0176" y2="1298.0176"/><line style="stroke:#181818;stroke-width:1.0;" x1="723" x2="723" y1="1298.0176" y2="1313.0176"/><polygon fill="#181818" points="719,1303.0176,723,1313.0176,727,1303.0176,723,1307.0176" style="stroke:#181818;stroke-width:1.0;"/><text fill="#000000" font-family="sans-serif" font-size="18" lengthAdjust="spacing" textLength="93" x="204.5" y="31.1406">Researcher</text><text fill="#000000" font-family="sans-serif" font-size="18" lengthAdjust="spacing" textLength="211" x="615.5" y="31.1406">Interoperability Community</text><text fill="#000000" font-family="sans-serif" font-size="18" lengthAdjust="spacing" textLength="215" x="615.5" y="53.7813">and/or Community Member</text><!--MD5=[3e63a3fc975c5edd59bc02fea5b7ab27]
@startuml Track Maturity PersonBorderThickness
|Researcher|
|Interoperability Community\nand/or Community Member|
start
:Request Interoperability \nMaturity Tracking Report;


|Researcher|

:Determine scope;

 package Gather-Data {

    fork
    :Gather Interoperability \nMaturity reports \nand raw interview data \nfrom publicly \navailable sources;
    :Request confidential metadata;

    |Interoperability Community\nand/or Community Member|
    :Provide confidential \nmetadata for which \npermission was granted;

    fork again
    |Researcher|
    :Request prior \nconfidential interoperability \nmaturity assessment reports\nand raw interview data ;

    |Interoperability Community\nand/or Community Member|
    :Provide available reports;

    |Researcher|
    end fork
 }
|Researcher|
 package Combine-Data {
    :Filter reports \non matching SGAM \nDomains and Zones \nof the usecase;
    :Make corrections \nfor changes \nin methodology;
    :Make corrections \nfor changes \nin questionaire;
    if (Ensure that for \neach time step, \nenough Comunity \nMembers participated) then (yes)
    :Use time point \nin tracking report;
    else (no)
    :Discard time point data;
    endif
    :Clarify data \ninconsistencies with \noriginal Researcher;
 }

 :Create Interoperability \nMaturity Tracking Report;

|Interoperability Community\nand/or Community Member|
:Receive Interoperability \nMaturity Tracking Report;
end



@enduml

PlantUML version 1.2022.7(Mon Aug 22 19:01:30 CEST 2022)
(GPL source distribution)
Java Runtime: OpenJDK Runtime Environment
JVM: OpenJDK 64-Bit Server VM
Default Encoding: Cp1252
Language: en
Country: US
--></g></svg>