<?xml version="1.0" encoding="UTF-8" standalone="no"?><svg xmlns="http://www.w3.org/2000/svg" xmlns:xlink="http://www.w3.org/1999/xlink" contentStyleType="text/css" height="553px" preserveAspectRatio="none" style="width:848px;height:553px;background:#FFFFFF;" version="1.1" viewBox="0 0 848 553" width="848px" zoomAndPan="magnify"><defs/><g><rect fill="none" height="27.6094" id="_title" style="stroke:none;stroke-width:1.0;" width="155" x="339.5" y="5"/><text fill="#000000" font-family="sans-serif" font-size="14" font-weight="bold" lengthAdjust="spacing" textLength="145" x="344.5" y="24.5332">Emininent use cases</text><!--MD5=[ecd5e1a869e4be9cdc20e55d821732f8]
cluster Asses Maturity--><g id="cluster_Asses Maturity"><path d="M340,329.1094 L444,329.1094 A3.75,3.75 0 0 1 446.5,331.6094 L453.5,352.7188 L554,352.7188 A2.5,2.5 0 0 1 556.5,355.2188 L556.5,511.6094 A2.5,2.5 0 0 1 554,514.1094 L340,514.1094 A2.5,2.5 0 0 1 337.5,511.6094 L337.5,331.6094 A2.5,2.5 0 0 1 340,329.1094 " fill="none" style="stroke:#000000;stroke-width:1.5;"/><line style="stroke:#000000;stroke-width:1.5;" x1="337.5" x2="453.5" y1="352.7188" y2="352.7188"/><text fill="#000000" font-family="sans-serif" font-size="14" font-weight="bold" lengthAdjust="spacing" textLength="103" x="341.5" y="345.6426">Asses Maturity</text></g><!--MD5=[7167e040e96eb5ed6b8cb31a5e41dd42]
cluster Fill in\nQuestionaire--><g id="cluster_Fill in\nQuestionaire"><path d="M649.5,245.1094 L741.5,245.1094 A3.75,3.75 0 0 1 744,247.6094 L751,286.3281 L838.5,286.3281 A2.5,2.5 0 0 1 841,288.8281 L841,420.6094 A2.5,2.5 0 0 1 838.5,423.1094 L649.5,423.1094 A2.5,2.5 0 0 1 647,420.6094 L647,247.6094 A2.5,2.5 0 0 1 649.5,245.1094 " fill="none" style="stroke:#000000;stroke-width:1.5;"/><line style="stroke:#000000;stroke-width:1.5;" x1="647" x2="751" y1="286.3281" y2="286.3281"/><text fill="#000000" font-family="sans-serif" font-size="14" font-weight="bold" lengthAdjust="spacing" textLength="38" x="677.5" y="261.6426">Fill in</text><text fill="#000000" font-family="sans-serif" font-size="14" font-weight="bold" lengthAdjust="spacing" textLength="91" x="651" y="279.252">Questionaire</text></g><!--MD5=[d1aca2fc2e10958723b7608c15aaa8cc]
cluster Track Maturity--><g id="cluster_Track Maturity"><path d="M338.5,106.1094 L438.5,106.1094 A3.75,3.75 0 0 1 441,108.6094 L448,129.7188 L555.5,129.7188 A2.5,2.5 0 0 1 558,132.2188 L558,302.6094 A2.5,2.5 0 0 1 555.5,305.1094 L338.5,305.1094 A2.5,2.5 0 0 1 336,302.6094 L336,108.6094 A2.5,2.5 0 0 1 338.5,106.1094 " fill="none" style="stroke:#000000;stroke-width:1.5;"/><line style="stroke:#000000;stroke-width:1.5;" x1="336" x2="448" y1="129.7188" y2="129.7188"/><text fill="#000000" font-family="sans-serif" font-size="14" font-weight="bold" lengthAdjust="spacing" textLength="99" x="340" y="122.6426">Track Maturity</text></g><g id="elem_crmrpt"><ellipse cx="447.066" cy="477.0226" fill="#F1F1F1" rx="92.566" ry="20.9132" style="stroke:#181818;stroke-width:0.5;"/><text fill="#000000" font-family="sans-serif" font-size="14" lengthAdjust="spacing" textLength="144" x="375.066" y="480.7511">Create Maturity Report</text></g><g id="elem_comrpt"><ellipse cx="447.0097" cy="393.0128" fill="#F1F1F1" rx="93.5097" ry="27.9034" style="stroke:#181818;stroke-width:0.5;"/><text fill="#000000" font-family="sans-serif" font-size="14" lengthAdjust="spacing" textLength="114" x="390.0097" y="387.9366">Consume Maturity</text><text fill="#000000" font-family="sans-serif" font-size="14" lengthAdjust="spacing" textLength="116" x="389.0097" y="405.546">Assesment Report</text></g><g id="elem_tq"><ellipse cx="744.097" cy="318.2288" fill="#F1F1F1" rx="81.097" ry="18.6194" style="stroke:#181818;stroke-width:0.5;"/><text fill="#000000" font-family="sans-serif" font-size="14" lengthAdjust="spacing" textLength="117" x="685.0843" y="322.1075">Take Questionaire</text></g><g id="elem_pr"><ellipse cx="744.2256" cy="389.0545" fill="#F1F1F1" rx="75.2256" ry="17.4451" style="stroke:#181818;stroke-width:0.5;"/><text fill="#000000" font-family="sans-serif" font-size="14" lengthAdjust="spacing" textLength="102" x="690.2256" y="393.5711">Process Results</text></g><g id="elem_crmtrpt"><ellipse cx="446.9031" cy="261.0128" fill="#F1F1F1" rx="82.9031" ry="27.9034" style="stroke:#181818;stroke-width:0.5;"/><text fill="#000000" font-family="sans-serif" font-size="14" lengthAdjust="spacing" textLength="97" x="396.4031" y="255.9366">Create Maturity</text><text fill="#000000" font-family="sans-serif" font-size="14" lengthAdjust="spacing" textLength="97" x="398.4031" y="273.546">Tracking report</text></g><g id="elem_comtrpt"><ellipse cx="446.9654" cy="170.024" fill="#F1F1F1" rx="94.9654" ry="27.9147" style="stroke:#181818;stroke-width:0.5;"/><text fill="#000000" font-family="sans-serif" font-size="14" lengthAdjust="spacing" textLength="114" x="386.0113" y="165.4773">Consume Maturity</text><text fill="#000000" font-family="sans-serif" font-size="14" lengthAdjust="spacing" textLength="97" x="396.5113" y="183.0866">Tracking report</text></g><!--MD5=[c74bb830f044c0aeca6cf199eb7462a7]
entity iopc--><g id="elem_iopc"><ellipse cx="240.5" cy="232.1094" fill="#F1F1F1" rx="8" ry="8" style="stroke:#181818;stroke-width:0.5;"/><path d="M240.5,240.1094 L240.5,267.1094 M227.5,248.1094 L253.5,248.1094 M240.5,267.1094 L227.5,282.1094 M240.5,267.1094 L253.5,282.1094 " fill="none" style="stroke:#181818;stroke-width:0.5;"/><text fill="#000000" font-family="sans-serif" font-size="14" lengthAdjust="spacing" textLength="93" x="192" y="298.1426">Interoperability</text><text fill="#000000" font-family="sans-serif" font-size="14" lengthAdjust="spacing" textLength="70" x="192" y="315.752">Community</text></g><!--MD5=[64b9ee45fd53269cc28b23451fac552c]
entity cm--><g id="elem_cm"><ellipse cx="68.5" cy="186.6094" fill="#F1F1F1" rx="8" ry="8" style="stroke:#181818;stroke-width:0.5;"/><path d="M68.5,194.6094 L68.5,221.6094 M55.5,202.6094 L81.5,202.6094 M68.5,221.6094 L55.5,236.6094 M68.5,221.6094 L81.5,236.6094 " fill="none" style="stroke:#181818;stroke-width:0.5;"/><text fill="#000000" font-family="sans-serif" font-size="14" lengthAdjust="spacing" textLength="125" x="6" y="252.6426">Community Member</text></g><!--MD5=[c4dc5d4fd0bbb98e508936c3c5f30280]
entity intrvw--><g id="elem_intrvw"><ellipse cx="68.5" cy="52.6094" fill="#F1F1F1" rx="8" ry="8" style="stroke:#181818;stroke-width:0.5;"/><path d="M68.5,60.6094 L68.5,87.6094 M55.5,68.6094 L81.5,68.6094 M68.5,87.6094 L55.5,102.6094 M68.5,87.6094 L81.5,102.6094 " fill="none" style="stroke:#181818;stroke-width:0.5;"/><text fill="#000000" font-family="sans-serif" font-size="14" lengthAdjust="spacing" textLength="71" x="33" y="118.6426">Interviewee</text></g><!--MD5=[fc20fb75d71566dade0debc883336336]
entity rsrch--><g id="elem_rsrch"><ellipse cx="240.5" cy="446.6094" fill="#F1F1F1" rx="8" ry="8" style="stroke:#181818;stroke-width:0.5;"/><path d="M240.5,454.6094 L240.5,481.6094 M227.5,462.6094 L253.5,462.6094 M240.5,481.6094 L227.5,496.6094 M240.5,481.6094 L253.5,496.6094 " fill="none" style="stroke:#181818;stroke-width:0.5;"/><text fill="#000000" font-family="sans-serif" font-size="14" lengthAdjust="spacing" textLength="74" x="203.5" y="512.6426">Researcher</text></g><!--MD5=[79af9c31d59ed6e1a61f8512dc683aae]
link crmtrpt to pr--><g id="link_crmtrpt_pr"><path d="M492.41,284.7494 C530.65,304.6194 587.64,333.0594 639,354.1094 C656.32,361.2094 675.67,368.0094 692.93,373.7094 " fill="none" id="crmtrpt-to-pr" style="stroke:#181818;stroke-width:1.0;"/><polygon fill="#181818" points="697.74,375.2794,690.4309,368.6781,692.9881,373.7239,687.9422,376.2811,697.74,375.2794" style="stroke:#181818;stroke-width:1.0;"/><text fill="#000000" font-family="sans-serif" font-size="13" lengthAdjust="spacing" textLength="55" x="575" y="321.6045">«include»</text></g><!--MD5=[1700ecd895e9c107fdc6b6d3c4bf091b]
link crmrpt to pr--><g id="link_crmrpt_pr"><path d="M503.83,460.4494 C558.04,444.2794 639.62,419.9494 692.09,404.2994 " fill="none" id="crmrpt-to-pr" style="stroke:#181818;stroke-width:1.0;"/><polygon fill="#181818" points="697.08,402.8094,687.3095,401.5695,692.2917,404.2487,689.6125,409.2309,697.08,402.8094" style="stroke:#181818;stroke-width:1.0;"/><text fill="#000000" font-family="sans-serif" font-size="13" lengthAdjust="spacing" textLength="55" x="575" y="418.6045">«include»</text></g><!--MD5=[91b59ed4e79e571563dfb50738588373]
link intrvw to cm--><g id="link_intrvw_cm"><path d="M68.5,122.3394 C68.5,136.5094 68.5,150.6694 68.5,164.8394 " fill="none" id="intrvw-to-cm" style="stroke:#181818;stroke-width:1.0;"/><polygon fill="none" points="68.5,177.8494,72.5,171.8494,68.5,165.8494,64.5,171.8494,68.5,177.8494" style="stroke:#181818;stroke-width:1.0;"/></g><!--MD5=[0f25b5ae71d4b2f36a9203ab307217ce]
link cm to iopc--><g id="link_cm_iopc"><path d="M131.35,236.7594 C146.93,241.7094 163.63,247.0094 179.13,251.9294 " fill="none" id="cm-to-iopc" style="stroke:#181818;stroke-width:1.0;"/><polygon fill="none" points="191.82,255.9594,187.3142,250.3293,180.3842,252.3231,184.89,257.9532,191.82,255.9594" style="stroke:#181818;stroke-width:1.0;"/></g><!--MD5=[24e4ad1ac3433fc1767db59b80a02716]
link iopc to comrpt--><g id="link_iopc_comrpt"><path d="M289.19,299.5594 C322.51,319.4394 366.76,345.8394 399.76,365.5194 " fill="none" id="iopc-to-comrpt" style="stroke:#181818;stroke-width:1.0;"/><polygon fill="#181818" points="404.13,368.1294,398.4587,360.0773,399.8388,365.5632,394.3528,366.9432,404.13,368.1294" style="stroke:#181818;stroke-width:1.0;"/></g><!--MD5=[abde94bd5a6f5996445f9139e0763c60]
link iopc to comtrpt--><g id="link_iopc_comtrpt"><path d="M289.38,237.5694 C301.67,229.6794 315.08,221.6694 328,215.1094 C344.09,206.9494 362.02,199.3894 378.95,192.8794 " fill="none" id="iopc-to-comtrpt" style="stroke:#181818;stroke-width:1.0;"/><polygon fill="#181818" points="383.7,191.0794,373.865,190.5566,379.0296,192.8647,376.7215,198.0293,383.7,191.0794" style="stroke:#181818;stroke-width:1.0;"/></g><!--MD5=[2751707eadff031dc865c7cc7a4779ed]
link cm to comrpt--><g id="link_cm_comrpt"><path d="M99.91,256.3894 C122.51,282.8594 155.62,316.4294 192,336.1094 C241.19,362.7194 302.18,376.9194 352.06,384.4894 " fill="none" id="cm-to-comrpt" style="stroke:#181818;stroke-width:1.0;"/><polygon fill="#181818" points="357.16,385.2494,348.8395,379.9797,352.2134,384.5203,347.6729,387.8942,357.16,385.2494" style="stroke:#181818;stroke-width:1.0;"/></g><!--MD5=[018b17230c36bf57413bc76155e8dd16]
link cm to comtrpt--><g id="link_cm_comtrpt"><path d="M131.25,209.3994 C191.74,201.8494 284.66,190.2494 353.88,181.6094 " fill="none" id="cm-to-comtrpt" style="stroke:#181818;stroke-width:1.0;"/><polygon fill="#181818" points="359.24,180.9394,349.8174,178.0732,354.2777,181.5525,350.7985,186.0129,359.24,180.9394" style="stroke:#181818;stroke-width:1.0;"/></g><!--MD5=[7b3f559c69dc093e588816e65156828f]
link intrvw to tq--><g id="link_intrvw_tq"><path d="M104.26,77.9294 C188.51,67.0294 408.33,48.7294 566,126.1094 C644.15,164.4594 704.64,253.2894 730,295.2994 " fill="none" id="intrvw-to-tq" style="stroke:#181818;stroke-width:1.0;"/><polygon fill="#181818" points="732.63,299.6994,731.4678,289.9193,730.0743,295.4019,724.5918,294.0084,732.63,299.6994" style="stroke:#181818;stroke-width:1.0;"/></g><!--MD5=[e26a4c618ca2dad215ad2709f0304f37]
link rsrch to pr--><g id="link_rsrch_pr"><path d="M277.9,496.5594 C292.96,503.5594 310.88,510.5994 328,514.1094 C431.62,535.3394 465.18,546.1194 566,514.1094 C630.78,493.5394 692.27,439.7494 722.86,409.8694 " fill="none" id="rsrch-to-pr" style="stroke:#181818;stroke-width:1.0;"/><polygon fill="#181818" points="726.44,406.3494,717.2193,409.8104,722.876,409.8562,722.8302,415.5128,726.44,406.3494" style="stroke:#181818;stroke-width:1.0;"/></g><!--MD5=[fe84b3b11d559dc0600cd7065ed9ecb4]
link rsrch to crmrpt--><g id="link_rsrch_crmrpt"><path d="M277.59,477.1094 C297.69,477.1094 323.77,477.1094 349.38,477.1094 " fill="none" id="rsrch-to-crmrpt" style="stroke:#181818;stroke-width:1.0;"/><polygon fill="#181818" points="354.49,477.1094,345.49,473.1094,349.49,477.1094,345.49,481.1094,354.49,477.1094" style="stroke:#181818;stroke-width:1.0;"/></g><!--MD5=[208aa69d261290edd0e040853c3bc51f]
link rsrch to crmtrpt--><g id="link_rsrch_crmtrpt"><path d="M263.23,437.9494 C279.14,411.2394 302.35,375.9794 328,349.1094 C350.01,326.0494 378.59,304.5694 402.1,288.6094 " fill="none" id="rsrch-to-crmtrpt" style="stroke:#181818;stroke-width:1.0;"/><polygon fill="#181818" points="406.43,285.6894,396.7294,287.392,402.2808,288.4794,401.1934,294.0307,406.43,285.6894" style="stroke:#181818;stroke-width:1.0;"/></g><!--MD5=[59669bfc813964d10f8250b3836b4767]
@startuml Emininent use cases
left to right direction

title "Emininent use cases"

actor "Interoperability \nCommunity" as iopc
actor "Community Member" as cm
actor "Interviewee" as intrvw
actor "Researcher" as rsrch

package "Asses Maturity" {
    usecase "Create Maturity Report" as crmrpt
    usecase "Consume Maturity\nAssesment Report" as comrpt
}
Package "Fill in\nQuestionaire" {
    usecase "Take Questionaire" as tq
    usecase "Process Results" as pr

}
package "Track Maturity" {
    usecase "Create Maturity \nTracking report" as crmtrpt
    usecase "Consume Maturity \nTracking report" as comtrpt
}


crmtrpt - -> pr : <<include>>
crmrpt - -> pr : <<include>>

intrvw -r-o cm
cm - -o iopc

' "Perform Maturity Assessment" ..> "Questionaire" <<depends>>
iopc - -> comrpt
iopc - -> comtrpt

cm - -> comrpt
cm - -> comtrpt


intrvw - -> tq


rsrch - -> pr 
rsrch - -> crmrpt
rsrch - -> crmtrpt

@enduml

@startuml Emininent use cases
left to right direction

title "Emininent use cases"

actor "Interoperability \nCommunity" as iopc
actor "Community Member" as cm
actor "Interviewee" as intrvw
actor "Researcher" as rsrch

package "Asses Maturity" {
    usecase "Create Maturity Report" as crmrpt
    usecase "Consume Maturity\nAssesment Report" as comrpt
}
Package "Fill in\nQuestionaire" {
    usecase "Take Questionaire" as tq
    usecase "Process Results" as pr

}
package "Track Maturity" {
    usecase "Create Maturity \nTracking report" as crmtrpt
    usecase "Consume Maturity \nTracking report" as comtrpt
}


crmtrpt - -> pr : <<include>>
crmrpt - -> pr : <<include>>

intrvw -r-o cm
cm - -o iopc

iopc - -> comrpt
iopc - -> comtrpt

cm - -> comrpt
cm - -> comtrpt


intrvw - -> tq


rsrch - -> pr 
rsrch - -> crmrpt
rsrch - -> crmtrpt

@enduml

PlantUML version 1.2022.7(Mon Aug 22 19:01:30 CEST 2022)
(GPL source distribution)
Java Runtime: OpenJDK Runtime Environment
JVM: OpenJDK 64-Bit Server VM
Default Encoding: Cp1252
Language: en
Country: US
--></g></svg>